<svg width="192" height="192" viewBox="0 0 192 192" fill="none" xmlns="http://www.w3.org/2000/svg">
  <rect x="8" y="8" width="176" height="176" rx="24" fill="#121A27"/>
  <rect x="17" y="17" width="158" height="158" rx="18" stroke="#F4B640" stroke-width="7"/>
  <rect x="28" y="28" width="136" height="136" rx="12" fill="#182438"/>
  <path d="M39 45H153" stroke="#F4B640" stroke-width="7" stroke-linecap="round"/>
  <text x="91" y="112" text-anchor="middle" font-family="Bahnschrift, Arial Black, Arial, sans-serif" font-size="57" font-weight="900" fill="#FFFFFF">BE</text>
  <path d="M132 58L109 95H126L118 134L149 84H130L132 58Z" fill="#F4B640" stroke="#FFFFFF" stroke-width="4" stroke-linejoin="round"/>
  <path d="M39 137C54 153 75 160 97 158C121 157 141 146 153 128" stroke="#FFFFFF" stroke-width="7" stroke-linecap="round"/>
  <path d="M35 128H20" stroke="#F4B640" stroke-width="7" stroke-linecap="round"/>
  <path d="M28 120V136" stroke="#F4B640" stroke-width="7" stroke-linecap="round"/>
  <circle cx="44" cy="151" r="5" fill="#F4B640"/>
  <circle cx="151" cy="151" r="5" fill="#F4B640"/>
</svg>
